<svg width="18" height="19" viewBox="0 0 18 19" fill="none" xmlns="http://www.w3.org/2000/svg">
<circle cx="9" cy="9.5" r="9" fill="#37119D"/>
<path fill-rule="evenodd" clip-rule="evenodd" d="M12.9095 13.4095C12.533 13.7861 11.9545 13.8182 11.6176 13.4813L5.11009 6.97378C4.77316 6.63684 4.80529 6.05843 5.18187 5.68185C5.55844 5.30527 6.13686 5.27314 6.4738 5.61008L12.9813 12.1176C13.3182 12.4545 13.2861 13.0329 12.9095 13.4095Z" fill="white"/>
<path fill-rule="evenodd" clip-rule="evenodd" d="M5.18186 13.4095C4.80529 13.0329 4.77315 12.4545 5.11009 12.1176L11.6176 5.61007C11.9545 5.27314 12.533 5.30527 12.9095 5.68185C13.2861 6.05843 13.3182 6.63684 12.9813 6.97378L6.4738 13.4813C6.13686 13.8182 5.55844 13.7861 5.18186 13.4095Z" fill="white"/>
</svg>
