<svg width="84" height="84" viewBox="0 0 84 84" fill="none" xmlns="http://www.w3.org/2000/svg">
<rect x="1" y="1" width="81.8" height="81.0019" rx="40.501" stroke="white" stroke-width="2"/>
<g clip-path="url(#clip0_1329_3252)">
<path d="M42.3659 40.9606C47.4674 40.9606 51.6064 36.8216 51.6064 31.7201C51.6064 26.6186 47.4674 22.4797 42.3659 22.4797C37.2644 22.4797 33.1255 26.6186 33.1255 31.7201C33.1255 36.8216 37.2644 40.9606 42.3659 40.9606ZM50.5797 43.014H47.0439C45.6193 43.6685 44.0343 44.0407 42.3659 44.0407C40.6975 44.0407 39.1189 43.6685 37.688 43.014H34.1522C29.6154 43.014 25.9385 46.6909 25.9385 51.2277V52.2544C25.9385 53.9549 27.3181 55.3346 29.0186 55.3346H55.7132C57.4137 55.3346 58.7934 53.9549 58.7934 52.2544V51.2277C58.7934 46.6909 55.1165 43.014 50.5797 43.014Z" fill="white"/>
</g>
<defs>
<clipPath id="clip0_1329_3252">
<rect width="32.8549" height="32.8549" fill="white" transform="translate(25.9385 22.4797)"/>
</clipPath>
</defs>
</svg>
