<svg width="16" height="17" viewBox="0 0 16 17" fill="none" xmlns="http://www.w3.org/2000/svg">
<path d="M9.14286 1.26786C9.14286 0.636786 9.65357 0.125 10.2857 0.125H14.825C15.0107 0.125 15.1607 0.155714 15.2929 0.211786C15.3964 0.267143 15.5536 0.348929 15.6643 0.457143C15.6643 0.458929 15.6643 0.460714 15.6679 0.462143C15.8893 0.684286 15.9679 0.974286 16 1.26429V5.83929C16 6.47143 15.4893 6.98214 14.8571 6.98214C14.225 6.98214 13.7143 6.47143 13.7143 5.83929V4.02857L7.66429 10.075C7.21786 10.5214 6.49643 10.5214 6.05 10.075C5.60357 9.62857 5.60357 8.90714 6.05 8.46071L12.0964 2.41071H10.2857C9.65357 2.41071 9.14286 1.89893 9.14286 1.26786ZM0 3.55357C0 2.29107 1.02321 1.26786 2.28571 1.26786H5.71429C6.34643 1.26786 6.85714 1.77964 6.85714 2.41071C6.85714 3.04286 6.34643 3.55357 5.71429 3.55357H2.28571V13.8393H12.5714V10.4107C12.5714 9.77857 13.0821 9.26786 13.7143 9.26786C14.3464 9.26786 14.8571 9.77857 14.8571 10.4107V13.8393C14.8571 15.1 13.8321 16.125 12.5714 16.125H2.28571C1.02321 16.125 0 15.1 0 13.8393V3.55357Z" fill="#4A2ACB"/>
</svg>
