<svg width="29" height="48" viewBox="0 0 29 48" fill="none"
    xmlns="http://www.w3.org/2000/svg">
    <path d="M11.6637 46.2633C11.9706 46.2633 12.2207 46.0348 12.3912 45.5891C12.6186 45.1435 12.7891 44.538 12.9255 43.7839C13.187 42.3556 13.3461 40.5275 13.3916 38.288V34.2661C11.8797 37.4311 11.0839 40.1162 10.9929 42.2985C10.8679 44.995 11.0839 46.309 11.6637 46.2633ZM4.20619 5.63294C4.11525 7.28969 4.09251 8.95787 4.13798 10.6489C4.13798 13.7681 4.34261 16.6246 4.74049 19.2183C5.13838 21.8119 5.71815 23.1945 6.46844 23.3659C7.84398 23.7201 9.3332 22.4289 10.9361 19.4811C12.4935 16.4875 13.312 11.1516 13.403 3.48488C13.7554 2.77648 14.7558 2.70793 16.4042 3.27922C18.0866 3.90764 18.8369 4.91312 19.3258 6.29564C19.1439 10.1804 19.1325 10.5575 19.178 13.014C19.2234 15.5163 19.2234 15.9619 19.2689 19.3554V21.0921C20.4285 19.5268 21.5312 17.9729 22.5998 16.4075C23.5774 14.9793 24.4187 13.6425 25.1348 12.3856C25.851 11.1288 26.3512 10.0433 26.6695 9.1064C27.1129 8.96929 27.488 8.90074 27.8064 8.90074C28.1247 8.90074 28.5112 8.99214 29 9.16353C28.5112 11.0374 27.2948 13.4254 25.3395 16.3275C23.3387 19.2297 21.3834 22.0176 19.4735 24.6913C19.4281 24.7827 19.3826 24.8512 19.3371 24.8969V25.1026C19.3826 27.0678 19.3599 29.0102 19.2689 30.9298C19.178 32.4951 19.0643 34.0262 18.9392 35.5458C18.8028 37.0198 18.6323 38.4251 18.4049 39.762C17.9161 42.1728 17.2227 44.1381 16.3359 45.6577C15.4492 47.223 14.1987 48 12.6072 48H12.4708C9.49236 48 8.07134 46.3661 8.20776 43.1097C8.34418 39.8077 9.81066 35.6601 12.6072 30.6556C12.7891 30.3014 12.9824 29.9243 13.2097 29.513C13.1642 27.6391 13.1188 25.8338 13.0733 24.0857C12.9824 21.8577 12.9369 20.6579 12.9369 19.3668C12.8005 19.9952 12.4026 20.8865 11.7432 22.0405C11.0384 23.2402 10.1631 24.0857 9.13994 24.8055C8.69659 25.0683 8.2305 25.2968 7.74167 25.4796C7.29831 25.6168 6.80949 25.6168 6.27519 25.4796C5.29753 25.2968 4.45629 24.8512 3.7401 24.1428C3.03528 23.4687 2.43277 22.6232 1.94394 21.5949C1.45511 20.5208 1.07997 18.8641 0.807133 17.5273C0.534299 16.1904 0.341041 14.8079 0.204624 13.3797C0.0682072 11.86 0 10.3861 0 8.95787C0 7.88384 0.045472 6.83266 0.136417 5.81576C0.318306 3.4049 0.443355 1.71388 0.5343 0.731255C0.977655 0.239943 1.53469 0 2.19404 0C2.37593 0 2.54645 0.0228517 2.72834 0.0685551C3.66053 0.205665 4.30851 0.559867 4.66092 1.14259C4.44492 2.47941 4.28577 3.9762 4.20619 5.63294Z" fill="white" />
</svg>