<svg width="20" height="20" viewBox="0 0 20 20" fill="none" xmlns="http://www.w3.org/2000/svg">
<g clip-path="url(#clip0_1359_2944)">
<path d="M19.2517 2.66583L17.7458 0.845833C17.4533 0.4775 17.0092 0.25 16.5 0.25H3.5C2.99083 0.25 2.54667 0.4775 2.24333 0.845833L0.748333 2.66583C0.434167 3.03417 0.25 3.52167 0.25 4.04167V17.5833C0.25 18.775 1.225 19.75 2.41667 19.75H17.5833C18.775 19.75 19.75 18.775 19.75 17.5833V4.04167C19.75 3.52167 19.5658 3.03417 19.2517 2.66583ZM3.76 2.41667H16.24L17.1175 3.4675H2.89333L3.76 2.41667ZM2.41667 17.5833V5.66667H17.5833V17.5833H2.41667ZM11.5708 7.83333H8.42917V11.0833H5.66667L10 15.4167L14.3333 11.0833H11.5708V7.83333Z" fill="#4A2ACB"/>
</g>
<defs>
<clipPath id="clip0_1359_2944">
<rect width="20" height="20" fill="white"/>
</clipPath>
</defs>
</svg>
