<svg width="49" height="48" viewBox="0 0 49 48" fill="none" xmlns="http://www.w3.org/2000/svg">
<rect x="1.5" y="1" width="46.4615" height="46" rx="23" stroke="#B36200" stroke-width="2"/>
<path d="M34.6111 17.5115L31.4871 14.3886C31.3905 14.2917 31.2758 14.2148 31.1494 14.1624C31.023 14.11 30.8875 14.0832 30.7507 14.0834H18.2507C18.1138 14.0832 17.9783 14.11 17.8519 14.1624C17.7255 14.2148 17.6108 14.2917 17.5142 14.3886L14.3902 17.5115C14.2929 17.608 14.2157 17.7229 14.1632 17.8495C14.1106 17.9761 14.0837 18.1119 14.084 18.249V31.7917C14.084 32.9407 15.0184 33.875 16.1673 33.875H32.834C33.9829 33.875 34.9173 32.9407 34.9173 31.7917V18.249C34.9176 18.1119 34.8907 17.9761 34.8382 17.8495C34.7856 17.7229 34.7084 17.608 34.6111 17.5115V17.5115ZM18.6819 16.1667H30.3194L31.36 17.2073H17.6413L18.6819 16.1667ZM16.1673 31.7917V19.2907H32.834L32.8361 31.7917H16.1673Z" fill="#B36200"/>
<path d="M27.6243 24.5H21.3743V22.4166H19.291V26.5833H29.7077V22.4166H27.6243V24.5Z" fill="#B36200"/>
</svg>
