<svg width="46" height="46" viewBox="0 0 46 46" fill="none" xmlns="http://www.w3.org/2000/svg">
<circle cx="23" cy="23" r="23" fill="#E5E4FF"/>
<path d="M27.0756 11.0675C27.4271 11.4191 27.6246 11.8959 27.6246 12.3931C27.6246 12.8903 27.4271 13.3671 27.0756 13.7187L17.7944 23L27.0756 32.2812C27.4172 32.6349 27.6062 33.1085 27.6019 33.6001C27.5976 34.0917 27.4004 34.562 27.0528 34.9097C26.7051 35.2573 26.2349 35.4545 25.7432 35.4588C25.2516 35.463 24.778 35.274 24.4244 34.9325L13.8175 24.3256C13.466 23.974 13.2685 23.4972 13.2685 23C13.2685 22.5028 13.466 22.026 13.8175 21.6744L24.4244 11.0675C24.776 10.716 25.2528 10.5185 25.75 10.5185C26.2472 10.5185 26.724 10.716 27.0756 11.0675Z" fill="#4A2ACB"/>
</svg>
