<svg width="24" height="24" viewBox="0 0 24 24" fill="none" xmlns="http://www.w3.org/2000/svg">
<path fill-rule="evenodd" clip-rule="evenodd" d="M22.5004 12C22.5004 11.8011 22.4213 11.6104 22.2807 11.4697C22.14 11.329 21.9493 11.25 21.7504 11.25L4.06086 11.25L8.78136 6.53103C8.92219 6.3902 9.00131 6.19919 9.00131 6.00003C9.00131 5.80087 8.92219 5.60986 8.78136 5.46903C8.64053 5.3282 8.44953 5.24908 8.25036 5.24908C8.0512 5.24908 7.86019 5.3282 7.71936 5.46903L1.71936 11.469C1.64952 11.5387 1.5941 11.6215 1.55629 11.7126C1.51849 11.8037 1.49902 11.9014 1.49902 12C1.49902 12.0987 1.51849 12.1964 1.5563 12.2875C1.5941 12.3786 1.64952 12.4614 1.71936 12.531L7.71936 18.531C7.78909 18.6008 7.87188 18.6561 7.96299 18.6938C8.0541 18.7316 8.15175 18.751 8.25036 18.751C8.44953 18.751 8.64053 18.6719 8.78136 18.531C8.92219 18.3902 9.00131 18.1992 9.00131 18C9.00131 17.8009 8.92219 17.6099 8.78136 17.469L4.06086 12.75L21.7504 12.75C21.9493 12.75 22.14 12.671 22.2807 12.5304C22.4213 12.3897 22.5004 12.1989 22.5004 12Z" fill="#4A2ACB"/>
</svg>
