<svg width="46" height="46" viewBox="0 0 46 46" fill="none" xmlns="http://www.w3.org/2000/svg">
<circle cx="23" cy="23" r="23" fill="#E5E4FF"/>
<path fill-rule="evenodd" clip-rule="evenodd" d="M30.4149 30.4149C29.6923 31.1376 28.5822 31.1993 27.9356 30.5527L15.4473 18.0644C14.8007 17.4178 14.8624 16.3077 15.5851 15.5851C16.3077 14.8624 17.4178 14.8007 18.0644 15.4473L30.5527 27.9356C31.1993 28.5822 31.1376 29.6923 30.4149 30.4149Z" fill="#4A2ACB"/>
<path fill-rule="evenodd" clip-rule="evenodd" d="M15.5851 30.4149C14.8624 29.6923 14.8007 28.5822 15.4473 27.9356L27.9356 15.4473C28.5822 14.8007 29.6923 14.8624 30.4149 15.5851C31.1376 16.3077 31.1993 17.4178 30.5527 18.0644L18.0644 30.5527C17.4178 31.1993 16.3077 31.1376 15.5851 30.4149Z" fill="#4A2ACB"/>
</svg>
