<svg width="42" height="42" viewBox="0 0 42 42" fill="none" xmlns="http://www.w3.org/2000/svg">
<circle cx="21" cy="21" r="21" fill="#F1C9C6"/>
<path d="M29.1667 15.1667L28.1552 29.3323C28.1133 29.921 27.8498 30.4719 27.418 30.8742C26.9861 31.2764 26.4178 31.5 25.8277 31.5H16.1723C15.5822 31.5 15.0139 31.2764 14.582 30.8742C14.1502 30.4719 13.8867 29.921 13.8448 29.3323L12.8333 15.1667M18.6667 19.8333V26.8333M23.3333 19.8333V26.8333M24.5 15.1667V11.6667C24.5 11.3572 24.3771 11.0605 24.1583 10.8417C23.9395 10.6229 23.6428 10.5 23.3333 10.5H18.6667C18.3572 10.5 18.0605 10.6229 17.8417 10.8417C17.6229 11.0605 17.5 11.3572 17.5 11.6667V15.1667M11.6667 15.1667H30.3333" stroke="#972232" stroke-width="2" stroke-linecap="round" stroke-linejoin="round"/>
</svg>
