<svg width="46" height="46" viewBox="0 0 46 46" fill="none" xmlns="http://www.w3.org/2000/svg">
<circle cx="23" cy="23" r="23" fill="#E5E4FF"/>
<path fill-rule="evenodd" clip-rule="evenodd" d="M13.5565 13.4882C14.2985 12.8373 15.5015 12.8373 16.2435 13.4882L22.5 18.9763L28.7565 13.4882C29.4985 12.8373 30.7015 12.8373 31.4435 13.4882C32.1855 14.139 32.1855 15.1943 31.4435 15.8452L23.8435 22.5118C23.4872 22.8244 23.0039 23 22.5 23C21.9961 23 21.5128 22.8244 21.1565 22.5118L13.5565 15.8452C12.8145 15.1943 12.8145 14.139 13.5565 13.4882Z" fill="#4A2ACB"/>
<path fill-rule="evenodd" clip-rule="evenodd" d="M13.5565 23.4882C14.2985 22.8373 15.5015 22.8373 16.2435 23.4882L22.5 28.9763L28.7565 23.4882C29.4985 22.8373 30.7015 22.8373 31.4435 23.4882C32.1855 24.139 32.1855 25.1943 31.4435 25.8452L23.8435 32.5118C23.4872 32.8244 23.0039 33 22.5 33C21.9961 33 21.5128 32.8244 21.1565 32.5118L13.5565 25.8452C12.8145 25.1943 12.8145 24.139 13.5565 23.4882Z" fill="#4A2ACB"/>
</svg>
