<svg width="28" height="28" viewBox="0 0 28 28" fill="none" xmlns="http://www.w3.org/2000/svg">
<circle cx="14" cy="14" r="14" transform="rotate(180 14 14)" fill="#4A2ACB"/>
<path fill-rule="evenodd" clip-rule="evenodd" d="M7.43934 20.59C6.85355 20.0432 6.85355 19.1568 7.43934 18.6101L12.3787 14L7.43934 9.38995C6.85355 8.84321 6.85355 7.95679 7.43934 7.41005C8.02512 6.86332 8.97487 6.86332 9.56066 7.41005L15.5607 13.01C15.842 13.2726 16 13.6287 16 14C16 14.3713 15.842 14.7274 15.5607 14.9899L9.56066 20.59C8.97487 21.1367 8.02513 21.1367 7.43934 20.59Z" fill="white"/>
<path fill-rule="evenodd" clip-rule="evenodd" d="M14.4393 20.59C13.8536 20.0432 13.8536 19.1568 14.4393 18.6101L19.3787 14L14.4393 9.38995C13.8536 8.84321 13.8536 7.95679 14.4393 7.41005C15.0251 6.86332 15.9749 6.86332 16.5607 7.41005L22.5607 13.01C22.842 13.2726 23 13.6287 23 14C23 14.3713 22.842 14.7274 22.5607 14.9899L16.5607 20.59C15.9749 21.1367 15.0251 21.1367 14.4393 20.59Z" fill="white"/>
</svg>
