<svg width="16" height="16" viewBox="0 0 16 16" fill="none" xmlns="http://www.w3.org/2000/svg">
<path fill-rule="evenodd" clip-rule="evenodd" d="M15.4149 15.4149C14.6923 16.1376 13.5822 16.1993 12.9356 15.5527L0.447332 3.06436C-0.199271 2.41776 -0.137604 1.30774 0.58507 0.585068C1.30774 -0.137606 2.41776 -0.199273 3.06437 0.44733L15.5527 12.9356C16.1993 13.5822 16.1376 14.6923 15.4149 15.4149Z" fill="#4A2ACB"/>
<path fill-rule="evenodd" clip-rule="evenodd" d="M0.585068 15.4149C-0.137606 14.6923 -0.199273 13.5822 0.44733 12.9356L12.9356 0.447331C13.5822 -0.199272 14.6923 -0.137603 15.4149 0.585071C16.1376 1.30775 16.1993 2.41776 15.5527 3.06437L3.06436 15.5527C2.41776 16.1993 1.30774 16.1376 0.585068 15.4149Z" fill="#4A2ACB"/>
</svg>
