<svg width="19" height="21" viewBox="0 0 19 21" fill="none" xmlns="http://www.w3.org/2000/svg">
<path d="M16.7917 5.29167L15.8885 17.9396C15.8511 18.4652 15.6159 18.9571 15.2303 19.3162C14.8447 19.6753 14.3374 19.875 13.8104 19.875H5.18959C4.66265 19.875 4.15528 19.6753 3.76968 19.3162C3.38407 18.9571 3.14888 18.4652 3.11146 17.9396L2.20834 5.29167M7.41667 9.45833V15.7083M11.5833 9.45833V15.7083M12.625 5.29167V2.16667C12.625 1.8904 12.5153 1.62545 12.3199 1.4301C12.1246 1.23475 11.8596 1.125 11.5833 1.125H7.41667C7.1404 1.125 6.87545 1.23475 6.6801 1.4301C6.48475 1.62545 6.375 1.8904 6.375 2.16667V5.29167M1.16667 5.29167H17.8333" stroke="#972232" stroke-width="2" stroke-linecap="round" stroke-linejoin="round"/>
</svg>
