<svg width="40" height="40" viewBox="0 0 40 40" fill="none" xmlns="http://www.w3.org/2000/svg">
<circle cx="20" cy="20" r="20" fill="#E5E4FF"/>
<path d="M8.40527 13.0435C8.40527 12.736 8.52743 12.4411 8.74486 12.2236C8.96229 12.0062 9.2572 11.8841 9.56469 11.8841H30.4343C30.7418 11.8841 31.0367 12.0062 31.2541 12.2236C31.4715 12.4411 31.5937 12.736 31.5937 13.0435C31.5937 13.351 31.4715 13.6459 31.2541 13.8633C31.0367 14.0807 30.7418 14.2029 30.4343 14.2029H9.56469C9.2572 14.2029 8.96229 14.0807 8.74486 13.8633C8.52743 13.6459 8.40527 13.351 8.40527 13.0435ZM8.40527 20.0371C8.40527 19.7296 8.52743 19.4347 8.74486 19.2173C8.96229 18.9998 9.2572 18.8777 9.56469 18.8777H30.4343C30.7418 18.8777 31.0367 18.9998 31.2541 19.2173C31.4715 19.4347 31.5937 19.7296 31.5937 20.0371C31.5937 20.3446 31.4715 20.6395 31.2541 20.8569C31.0367 21.0744 30.7418 21.1965 30.4343 21.1965H9.56469C9.2572 21.1965 8.96229 21.0744 8.74486 20.8569C8.52743 20.6395 8.40527 20.3446 8.40527 20.0371ZM9.56469 25.8713C9.2572 25.8713 8.96229 25.9935 8.74486 26.2109C8.52743 26.4283 8.40527 26.7232 8.40527 27.0307C8.40527 27.3382 8.52743 27.6331 8.74486 27.8506C8.96229 28.068 9.2572 28.1901 9.56469 28.1901H30.4343C30.7418 28.1901 31.0367 28.068 31.2541 27.8506C31.4715 27.6331 31.5937 27.3382 31.5937 27.0307C31.5937 26.7232 31.4715 26.4283 31.2541 26.2109C31.0367 25.9935 30.7418 25.8713 30.4343 25.8713H9.56469Z" fill="#4A2ACB"/>
</svg>
