<svg width="25" height="25" viewBox="0 0 25 25" fill="none"
    xmlns="http://www.w3.org/2000/svg">
    <path d="M24 12.5C24 18.8513 18.8513 24 12.5 24C6.14873 24 1 18.8513 1 12.5C1 6.14873 6.14872 1 12.5 1C18.8513 1 24 6.14873 24 12.5Z" stroke="#1C325D" stroke-width="2"/>
    <path fill-rule="evenodd" clip-rule="evenodd" d="M12.5 7C13.3284 7 14 7.61561 14 8.375L14 12.5C14 13.2594 13.3284 13.875 12.5 13.875C11.6716 13.875 11 13.2594 11 12.5L11 8.375C11 7.61561 11.6716 7 12.5 7Z" fill="#1C325D"/>
    <path d="M14 16.625C14 17.3844 13.3284 18 12.5 18C11.6716 18 11 17.3844 11 16.625C11 15.8656 11.6716 15.25 12.5 15.25C13.3284 15.25 14 15.8656 14 16.625Z" fill="#1C325D"/>
</svg>
