<svg width="28" height="28" viewBox="0 0 28 28" fill="none" xmlns="http://www.w3.org/2000/svg">
<circle cx="14" cy="14" r="14" fill="#4A2ACB"/>
<path fill-rule="evenodd" clip-rule="evenodd" d="M20.5607 7.41005C21.1464 7.95678 21.1464 8.84322 20.5607 9.38995L15.6213 14L20.5607 18.6101C21.1464 19.1568 21.1464 20.0432 20.5607 20.59C19.9749 21.1367 19.0251 21.1367 18.4393 20.59L12.4393 14.99C12.158 14.7274 12 14.3713 12 14C12 13.6287 12.158 13.2726 12.4393 13.0101L18.4393 7.41005C19.0251 6.86332 19.9749 6.86332 20.5607 7.41005Z" fill="white"/>
<path fill-rule="evenodd" clip-rule="evenodd" d="M13.5607 7.41005C14.1464 7.95678 14.1464 8.84322 13.5607 9.38995L8.62132 14L13.5607 18.6101C14.1464 19.1568 14.1464 20.0432 13.5607 20.59C12.9749 21.1367 12.0251 21.1367 11.4393 20.59L5.43934 14.99C5.15804 14.7274 5 14.3713 5 14C5 13.6287 5.15804 13.2726 5.43934 13.0101L11.4393 7.41005C12.0251 6.86332 12.9749 6.86332 13.5607 7.41005Z" fill="white"/>
</svg>
