<svg width="24" height="24" viewBox="0 0 24 24" fill="none"
    xmlns="http://www.w3.org/2000/svg">
    <path d="M20.9861 18.5139C20.4202 17.9718 19.8694 17.4141 19.3343 16.8415C18.8848 16.3848 18.6142 16.0525 18.6142 16.0525L15.2308 14.437C16.5854 12.9007 17.3329 10.9231 17.3333 8.875C17.3333 4.21204 13.5392 0.416666 8.875 0.416666C4.21083 0.416666 0.416667 4.21204 0.416667 8.875C0.416667 13.538 4.21083 17.3333 8.875 17.3333C11.0053 17.3333 12.9471 16.5358 14.437 15.232L16.0525 18.6154C16.0525 18.6154 16.3848 18.886 16.8415 19.3355C17.3092 19.7742 17.9242 20.3675 18.5139 20.9873L20.1548 22.6693L20.8846 23.4499L23.4475 20.887L22.6669 20.1572C22.209 19.7077 21.5975 19.1108 20.9861 18.5139ZM8.875 14.9167C5.54363 14.9167 2.83333 12.2064 2.83333 8.875C2.83333 5.54362 5.54363 2.83333 8.875 2.83333C12.2064 2.83333 14.9167 5.54362 14.9167 8.875C14.9167 12.2064 12.2064 14.9167 8.875 14.9167Z" fill="#4A2ACB"/>
</svg>
