<svg width="40" height="40" viewBox="0 0 40 40" fill="none" xmlns="http://www.w3.org/2000/svg">
<g clip-path="url(#clip0_1488_5659)">
<circle cx="20" cy="20" r="20" fill="#E5E4FF"/>
<path d="M27.8142 25.6642C27.3221 25.1928 26.8431 24.7079 26.3779 24.21C25.987 23.8128 25.7516 23.5239 25.7516 23.5239L22.8096 22.119C23.9875 20.7832 24.6375 19.0635 24.6379 17.2826C24.6379 13.2278 21.3386 9.92749 17.2828 9.92749C13.227 9.92749 9.92773 13.2278 9.92773 17.2826C9.92773 21.3373 13.227 24.6376 17.2828 24.6376C19.1352 24.6376 20.8237 23.9442 22.1193 22.8104L23.5241 25.7525C23.5241 25.7525 23.8131 25.9878 24.2102 26.3787C24.6169 26.7601 25.1517 27.276 25.6644 27.815L27.0913 29.2776L27.726 29.9564L29.9545 27.7278L29.2758 27.0932C28.8776 26.7023 28.3459 26.1833 27.8142 25.6642ZM17.2828 22.5362C14.386 22.5362 12.0292 20.1794 12.0292 17.2826C12.0292 14.3857 14.386 12.0289 17.2828 12.0289C20.1797 12.0289 22.5364 14.3857 22.5364 17.2826C22.5364 20.1794 20.1797 22.5362 17.2828 22.5362Z" fill="#4A2ACB"/>
</g>
<defs>
<clipPath id="clip0_1488_5659">
<rect width="40" height="40" fill="white"/>
</clipPath>
</defs>
</svg>
