<svg width="46" height="46" viewBox="0 0 46 46" fill="none" xmlns="http://www.w3.org/2000/svg">
<circle cx="23" cy="23" r="23" fill="#E5E4FF"/>
<path d="M15.4012 12.5637L34.595 22.0212C34.6997 22.0728 34.7878 22.1527 34.8494 22.2518C34.9111 22.3508 34.9437 22.4652 34.9437 22.5819C34.9437 22.6986 34.9111 22.8129 34.8494 22.912C34.7878 23.0111 34.6997 23.0909 34.595 23.1425L15.4 32.6C15.2925 32.6528 15.172 32.6736 15.053 32.6599C14.934 32.6462 14.8214 32.5986 14.7287 32.5228C14.6359 32.4469 14.567 32.346 14.53 32.232C14.493 32.118 14.4895 31.9959 14.52 31.88L16.4212 24.6987C16.4521 24.5825 16.5157 24.4777 16.6047 24.3968C16.6936 24.3158 16.8039 24.2623 16.9225 24.2425L25.5238 22.8087C25.575 22.8003 25.6233 22.7791 25.6644 22.7473C25.7054 22.7154 25.7378 22.6738 25.7587 22.6262L25.7812 22.5512C25.7929 22.4817 25.7807 22.4103 25.7467 22.3486C25.7127 22.2869 25.6588 22.2385 25.5938 22.2112L25.5238 22.1912L16.875 20.75C16.7566 20.73 16.6466 20.6763 16.5579 20.5954C16.4692 20.5145 16.4057 20.4098 16.375 20.2937L14.52 13.285C14.4892 13.169 14.4924 13.0467 14.5293 12.9325C14.5661 12.8183 14.6351 12.7172 14.7279 12.6411C14.8207 12.5651 14.9334 12.5174 15.0526 12.5036C15.1717 12.4899 15.2924 12.5108 15.4 12.5637H15.4012Z" fill="#4A2ACB"/>
</svg>
