<svg width="28" height="28" viewBox="0 0 28 28" fill="none"
    xmlns="http://www.w3.org/2000/svg">
    <circle cx="14" cy="14" r="14" fill="#4A2ACB"/>
    <g clip-path="url(#clip0_1417_5141)">
        <path d="M13.7875 18.8825C13.3083 18.8825 12.9005 19.0335 12.5625 19.3363C12.2243 19.639 12.0553 20.0068 12.0553 20.4377C12.0553 20.9257 12.2263 21.308 12.5678 21.5865C12.9105 21.8647 13.3083 22.004 13.7645 22.004C14.2285 22.004 14.6328 21.8668 14.9788 21.5915C15.3248 21.317 15.4968 20.9327 15.4968 20.438C15.4968 20.0068 15.3318 19.6392 15.0015 19.3365C14.6705 19.0335 14.2663 18.8825 13.7875 18.8825ZM18.6723 8.1665C18.2333 7.499 17.6045 6.96375 16.8023 6.57775C16.0058 6.1935 15.0778 6 14.0423 6C12.9283 6 11.937 6.23275 11.097 6.6925C10.2553 7.152 9.60652 7.742 9.16602 8.4475C8.72252 9.15525 8.49902 9.86675 8.49902 10.5627C8.49902 10.9352 8.65302 11.282 8.95677 11.5938C9.26202 11.9072 9.64202 12.0662 10.0855 12.0662C10.8405 12.0662 11.358 11.6213 11.6208 10.751C11.86 10.0293 12.1548 9.48 12.4958 9.11575C12.8168 8.77275 13.3373 8.59925 14.0425 8.59925C14.6508 8.59925 15.1305 8.76975 15.5113 9.12075C15.8863 9.46775 16.0685 9.88175 16.0685 10.3853C16.0708 10.6291 16.0093 10.8692 15.8903 11.082C15.7637 11.3092 15.6062 11.5177 15.4223 11.7015C15.2273 11.8965 14.9058 12.1908 14.4663 12.5747C13.9543 13.0235 13.541 13.4177 13.2393 13.743C12.9202 14.0913 12.6639 14.4922 12.4818 14.928C12.2915 15.379 12.1953 15.916 12.1953 16.5247C12.1953 17.045 12.3403 17.4478 12.627 17.7222C12.9108 17.9948 13.264 18.133 13.6778 18.133C14.4688 18.133 14.9655 17.7008 15.113 16.8923C15.1895 16.556 15.2453 16.321 15.283 16.1868C15.3173 16.0653 15.3668 15.9408 15.4305 15.8162C15.4923 15.6958 15.5903 15.5585 15.7215 15.4075C15.8588 15.2498 16.0455 15.0635 16.2733 14.8558C17.1255 14.0942 17.7265 13.5425 18.06 13.216C18.404 12.8787 18.704 12.475 18.9528 12.0145C19.2068 11.542 19.336 10.9872 19.336 10.365C19.3355 9.5765 19.112 8.8375 18.6708 8.16725" fill="white"/>
    </g>
    <defs>
        <clipPath id="clip0_1417_5141">
            <rect width="16" height="16" fill="white" transform="translate(6 6)"/>
        </clipPath>
    </defs>
</svg>
