<svg width="48" height="48" viewBox="0 0 48 48" fill="none"
    xmlns="http://www.w3.org/2000/svg">
    <path d="M1 24C1 11.2974 11.2974 0.999998 24 0.999998C36.7025 0.999997 47 11.2974 47 24C47 36.7025 36.7026 47 24 47C11.2975 47 1.00001 36.7026 1 24Z" stroke="#1C325D" stroke-width="2" />
    <mask id="path-2-inside-1_3734_5116" fill="white">
        <path fill-rule="evenodd" clip-rule="evenodd" d="M23.9991 12.48C22.4086 12.48 21.1191 13.7694 21.1191 15.36L21.1191 24C21.1191 25.5906 22.4086 26.88 23.9991 26.88C25.5897 26.88 26.8791 25.5906 26.8791 24L26.8791 15.36C26.8791 13.7694 25.5897 12.48 23.9991 12.48Z" />
        <path d="M21.1191 32.64C21.1191 34.2306 22.4086 35.52 23.9991 35.52C25.5897 35.52 26.8791 34.2306 26.8791 32.64C26.8791 31.0494 25.5897 29.76 23.9991 29.76C22.4086 29.76 21.1191 31.0494 21.1191 32.64Z" />
    </mask>
    <path fill-rule="evenodd" clip-rule="evenodd" d="M23.9991 12.48C22.4086 12.48 21.1191 13.7694 21.1191 15.36L21.1191 24C21.1191 25.5906 22.4086 26.88 23.9991 26.88C25.5897 26.88 26.8791 25.5906 26.8791 24L26.8791 15.36C26.8791 13.7694 25.5897 12.48 23.9991 12.48Z" fill="#1C325D" />
    <path d="M21.1191 32.64C21.1191 34.2306 22.4086 35.52 23.9991 35.52C25.5897 35.52 26.8791 34.2306 26.8791 32.64C26.8791 31.0494 25.5897 29.76 23.9991 29.76C22.4086 29.76 21.1191 31.0494 21.1191 32.64Z" fill="#1C325D" />
    <path d="M21.1191 15.36L22.1191 15.36L21.1191 15.36ZM21.1191 24L20.1191 24L21.1191 24ZM26.8791 24L27.8791 24L26.8791 24ZM26.8791 15.36L25.8791 15.36L26.8791 15.36ZM20.1191 15.36C20.1191 13.2172 21.8563 11.48 23.9991 11.48L23.9991 13.48C22.9608 13.48 22.1191 14.3217 22.1191 15.36L20.1191 15.36ZM20.1191 24L20.1191 15.36L22.1191 15.36L22.1191 24L20.1191 24ZM23.9991 27.88C21.8563 27.88 20.1191 26.1429 20.1191 24L22.1191 24C22.1191 25.0383 22.9608 25.88 23.9991 25.88L23.9991 27.88ZM27.8791 24C27.8791 26.1429 26.142 27.88 23.9991 27.88L23.9991 25.88C25.0374 25.88 25.8791 25.0383 25.8791 24L27.8791 24ZM27.8791 15.36L27.8791 24L25.8791 24L25.8791 15.36L27.8791 15.36ZM23.9991 11.48C26.142 11.48 27.8791 13.2172 27.8791 15.36L25.8791 15.36C25.8791 14.3217 25.0374 13.48 23.9991 13.48L23.9991 11.48ZM22.1191 32.64C22.1191 33.6783 22.9608 34.52 23.9991 34.52L23.9991 36.52C21.8563 36.52 20.1191 34.7829 20.1191 32.64L22.1191 32.64ZM23.9991 34.52C25.0374 34.52 25.8791 33.6783 25.8791 32.64L27.8791 32.64C27.8791 34.7829 26.142 36.52 23.9991 36.52L23.9991 34.52ZM25.8791 32.64C25.8791 31.6017 25.0374 30.76 23.9991 30.76L23.9991 28.76C26.142 28.76 27.8791 30.4972 27.8791 32.64L25.8791 32.64ZM23.9991 30.76C22.9608 30.76 22.1191 31.6017 22.1191 32.64L20.1191 32.64C20.1191 30.4972 21.8563 28.76 23.9991 28.76L23.9991 30.76Z" fill="#1C325D" mask="url(#path-2-inside-1_3734_5116)" />
</svg>
